<?xml version="1.0" standalone="no"?><!DOCTYPE svg PUBLIC "-//W3C//DTD SVG 1.1//EN" "http://www.w3.org/Graphics/SVG/1.1/DTD/svg11.dtd"><svg t="1647336399839" class="icon" viewBox="0 0 1024 1024" version="1.1" xmlns="http://www.w3.org/2000/svg" p-id="10609" width="24" height="24" xmlns:xlink="http://www.w3.org/1999/xlink"><defs><style type="text/css"></style></defs><path d="M611.3 257.9c-22.1 0-40-17.9-40-40v-70.6H452.7v70.6c0 22.1-17.9 40-40 40s-40-17.9-40-40v-88.4c0-34.3 28.9-62.2 64.5-62.2h149.6c35.6 0 64.5 27.9 64.5 62.2v88.4c0 22-17.9 40-40 40z" p-id="10610" fill="#333333"></path><path d="M754.6 957.3H269.4c-33.3 0-59.3-30.7-59.3-70V256c0-22.1 17.9-40 40-40s40 17.9 40 40v621.3H734V256c0-22.1 17.9-40 40-40s40 17.9 40 40v631.3c-0.1 39.2-26.1 70-59.4 70z" p-id="10611" fill="#333333"></path><path d="M918.3 296H105.7c-22.1 0-40-17.9-40-40s17.9-40 40-40h812.6c22.1 0 40 17.9 40 40s-17.9 40-40 40zM430.7 780.9c-22.1 0-40-17.9-40-39.9l-0.4-308.6c0-22.1 17.9-40 39.9-40.1h0.1c22.1 0 40 17.9 40 39.9l0.4 308.6c0 22.1-17.9 40.1-40 40.1zM593.8 780.9c-22.1 0-40-17.9-40-39.9l-0.4-308.6c0-22.1 17.9-40 39.9-40.1h0.1c22.1 0 40 17.9 40 39.9l0.4 308.6c0 22.1-17.9 40.1-40 40.1z" p-id="10612" fill="#333333"></path></svg>