<?xml version="1.0" standalone="no"?><!DOCTYPE svg PUBLIC "-//W3C//DTD SVG 1.1//EN" "http://www.w3.org/Graphics/SVG/1.1/DTD/svg11.dtd"><svg t="1646722319155" class="icon" viewBox="0 0 1024 1024" version="1.1" xmlns="http://www.w3.org/2000/svg" p-id="16920" width="18" height="18" xmlns:xlink="http://www.w3.org/1999/xlink"><defs><style type="text/css"></style></defs><path d="M810.666667 128H213.333333c-46.933333 0-85.333333 38.4-85.333333 85.333333v469.333334c0 46.933333 38.4 85.333333 85.333333 85.333333h597.333334c46.933333 0 85.333333-38.4 85.333333-85.333333V213.333333c0-46.933333-38.4-85.333333-85.333333-85.333333z m0 490.666667c0 36.266667-27.733333 64-64 64H277.333333c-36.266667 0-64-27.733333-64-64V277.333333c0-36.266667 27.733333-64 64-64h469.333334c36.266667 0 64 27.733333 64 64v341.333334z" p-id="16921" fill="#666666"></path><path d="M704 256H320c-36.266667 0-64 27.733333-64 64v256c0 36.266667 27.733333 64 64 64h384c36.266667 0 64-27.733333 64-64V320c0-36.266667-27.733333-64-64-64zM640 810.666667H384c-23.466667 0-42.666667 19.2-42.666667 42.666666s19.2 42.666667 42.666667 42.666667h256c23.466667 0 42.666667-19.2 42.666667-42.666667s-19.2-42.666667-42.666667-42.666666z" p-id="16922" fill="#666666"></path></svg>