<?xml version="1.0" standalone="no"?><!DOCTYPE svg PUBLIC "-//W3C//DTD SVG 1.1//EN" "http://www.w3.org/Graphics/SVG/1.1/DTD/svg11.dtd"><svg t="1646722441909" class="icon" viewBox="0 0 1024 1024" version="1.1" xmlns="http://www.w3.org/2000/svg" p-id="22591" width="18" height="18" xmlns:xlink="http://www.w3.org/1999/xlink"><defs><style type="text/css"></style></defs><path d="M511.3 860.9c-117.5 0-221.7-58.3-285.1-147.4h-103c73.2 139.8 219.7 235.4 388.1 235.4 168.4 0 314.9-95.6 388.1-235.3h-103c-63.4 89-167.6 147.3-285.1 147.3z m0-699.4c130.3 0 244.2 71.6 304.3 177.6h98.1C846.9 183 691.7 73.4 511.3 73.4 331.1 73.4 175.9 183 108.9 339H207c60.2-105.9 174.1-177.5 304.3-177.5z m422.2 249.9l-39.3 149.2L852 411.4h-52.2l-43.4 148.9-40.1-148.9H614l-39.3 149.2-42.2-149.2h-52.2l-43.4 148.9-40.1-148.9H309l-39.3 149.2-42.2-149.2h-52.2l-43.4 148.9-40-148.9H28.7l72.6 241.7h55.3l43.7-142.7 40.5 142.7h56.7l54.2-181.8 54.6 181.8h55.3l43.7-142.7 40.5 142.7h56.7l61.5-206 61.8 206h55.3l43.7-142.7 40.5 142.7H922l72-241.7h-60.5z" fill="#666666" p-id="22592"></path></svg>