<?xml version="1.0" standalone="no"?><!DOCTYPE svg PUBLIC "-//W3C//DTD SVG 1.1//EN" "http://www.w3.org/Graphics/SVG/1.1/DTD/svg11.dtd"><svg t="1646722176276" class="icon" viewBox="0 0 1024 1024" version="1.1" xmlns="http://www.w3.org/2000/svg" p-id="15684" width="18" height="18" xmlns:xlink="http://www.w3.org/1999/xlink"><defs><style type="text/css"></style></defs><path d="M760.242424 230.658586H131.361616c-18.307879 0-33.09899 14.791111-33.09899 33.09899v628.880808c0 18.307879 14.791111 33.09899 33.09899 33.09899h628.880808c18.307879 0 33.09899-14.791111 33.09899-33.09899V263.757576c0-18.307879-14.791111-33.09899-33.09899-33.09899z m-41.373737 620.60606H172.735354V305.131313h546.133333v546.133333z m0 0" p-id="15685" fill="#666666"></path><path d="M892.638384 98.262626h-637.155556c-4.551111 0-8.274747 3.723636-8.274747 8.274748v57.923232c0 4.551111 3.723636 8.274747 8.274747 8.274748h595.781818v595.781818c0 4.551111 3.723636 8.274747 8.274748 8.274747h57.923232c4.551111 0 8.274747-3.723636 8.274748-8.274747V131.361616c0-18.307879-14.791111-33.09899-33.09899-33.09899z m-599.919192 453.042425" p-id="15686" fill="#666666"></path><path d="M313.664646 439.40202h66.715152v287.030303h-66.715152v-287.030303zM422.658586 441.341414c24.048485-3.878788 48.743434-5.818182 74.084848-5.818182 45.511111 0 78.351515 8.016162 98.521212 24.048485 20.169697 16.290909 30.254545 42.537374 30.254546 78.739394 0 35.426263-9.826263 61.155556-29.478788 77.187879-19.652525 16.032323-51.329293 24.048485-95.030303 24.048485h-11.636364v86.884848h-66.715151v-285.090909z m124.121212 134.59394c6.981818-6.981818 10.472727-19.523232 10.472727-37.624243 0-18.10101-3.490909-30.642424-10.472727-37.624242-7.240404-7.240404-20.428283-10.860606-39.563636-10.860606-7.240404 0-13.187879 0.517172-17.842425 1.551515v93.866666c5.171717 0.775758 11.636364 1.163636 19.39394 1.163637 18.346667 0 31.030303-3.490909 38.012121-10.472727z" p-id="15687" fill="#666666"></path></svg>